# xmcd
#
# Track frame offsets:
#	150
#	16450
#	33690
#	51412
#	73402
#	89512
#	107165
#	124762
#
# Disc length: 2014 seconds
#
# Revision: 0
# Processed by: cddbd v1.5.2PL0 Copyright (c) Steve Scherf et al.
# Submitted via: EasyCDDAExtractor 11.5.0.1
#
DISCID=7707dc08
DTITLE=Tanya Johnson - Tanya
DYEAR=1995
DGENRE=R&B
TTITLE0=You
TTITLE1=The Past
TTITLE2=Rock Your Body
TTITLE3=Love Don't Run
TTITLE4=Make Love To My Mind
TTITLE5=Come To Me Baby
TTITLE6=Your Child
TTITLE7=God Sent Me You
EXTD=
EXTT0=
EXTT1=
EXTT2=
EXTT3=
EXTT4=
EXTT5=
EXTT6=
EXTT7=
PLAYORDER=
